<svg width="231" height="119" viewBox="0 0 231 119" fill="none" xmlns="http://www.w3.org/2000/svg">
<path d="M0.4375 56V1H11.375V20.6562H16.5625V1H27.5V56H16.5625V31.0625H11.375V56H0.4375ZM32.375 56V1H54.375V11.625H43.5625V22.3438H53.9375V32.6875H43.5625V45.2812H55.0938V56H32.375ZM58.75 56V1H75.625C78.4375 1 80.5625 1.64583 82 2.9375C83.4375 4.20833 84.3958 6 84.875 8.3125C85.375 10.6042 85.625 13.3021 85.625 16.4062C85.625 19.4062 85.2396 21.8021 84.4688 23.5938C83.7188 25.3854 82.2917 26.625 80.1875 27.3125C81.9167 27.6667 83.125 28.5312 83.8125 29.9062C84.5208 31.2604 84.875 33.0208 84.875 35.1875V56H74.0312V34.4688C74.0312 32.8646 73.6979 31.875 73.0312 31.5C72.3854 31.1042 71.3333 30.9062 69.875 30.9062V56H58.75ZM69.9375 21.375H72.5938C74.1146 21.375 74.875 19.7188 74.875 16.4062C74.875 14.2604 74.7083 12.8542 74.375 12.1875C74.0417 11.5208 73.4167 11.1875 72.5 11.1875H69.9375V21.375ZM102.062 56.5C98.0833 56.5 94.875 55.2604 92.4375 52.7812C90.0208 50.3021 88.8125 46.8333 88.8125 42.375V17C88.8125 11.6667 89.8646 7.58333 91.9688 4.75C94.0938 1.91667 97.5417 0.5 102.312 0.5C104.917 0.5 107.229 0.979167 109.25 1.9375C111.292 2.89583 112.896 4.33333 114.062 6.25C115.229 8.14583 115.812 10.5417 115.812 13.4375V22.9375H104.875V14.8125C104.875 13.1667 104.667 12.0625 104.25 11.5C103.833 10.9167 103.188 10.625 102.312 10.625C101.292 10.625 100.604 11 100.25 11.75C99.8958 12.4792 99.7188 13.4583 99.7188 14.6875V42.2188C99.7188 43.7396 99.9375 44.8125 100.375 45.4375C100.833 46.0625 101.479 46.375 102.312 46.375C103.25 46.375 103.906 45.9896 104.281 45.2188C104.677 44.4479 104.875 43.4479 104.875 42.2188V32.3125H115.938V42.7188C115.938 47.5521 114.719 51.0625 112.281 53.25C109.844 55.4167 106.438 56.5 102.062 56.5ZM132.344 56.5C127.76 56.5 124.385 55.2188 122.219 52.6562C120.052 50.0729 118.969 46.2812 118.969 41.2812V1H129.656V40.8438C129.656 41.7604 129.708 42.6458 129.812 43.5C129.917 44.3333 130.156 45.0208 130.531 45.5625C130.906 46.1042 131.51 46.375 132.344 46.375C133.198 46.375 133.812 46.1146 134.188 45.5938C134.562 45.0521 134.792 44.3542 134.875 43.5C134.979 42.6458 135.031 41.7604 135.031 40.8438V1H145.719V41.2812C145.719 46.2812 144.635 50.0729 142.469 52.6562C140.302 55.2188 136.927 56.5 132.344 56.5ZM149.938 56V1H160.938V46.625H172.25V56H149.938ZM175.375 56V1H197.375V11.625H186.562V22.3438H196.938V32.6875H186.562V45.2812H198.094V56H175.375ZM214.812 56.5C209.792 56.5 206.167 55.25 203.938 52.75C201.729 50.25 200.625 46.2708 200.625 40.8125V35.4375H211.5V42.3125C211.5 43.5833 211.688 44.5833 212.062 45.3125C212.458 46.0208 213.135 46.375 214.094 46.375C215.094 46.375 215.781 46.0833 216.156 45.5C216.552 44.9167 216.75 43.9583 216.75 42.625C216.75 40.9375 216.583 39.5312 216.25 38.4062C215.917 37.2604 215.333 36.1771 214.5 35.1562C213.688 34.1146 212.552 32.9062 211.094 31.5312L206.156 26.8438C202.469 23.3646 200.625 19.3854 200.625 14.9062C200.625 10.2188 201.708 6.64583 203.875 4.1875C206.062 1.72917 209.219 0.5 213.344 0.5C218.385 0.5 221.958 1.84375 224.062 4.53125C226.188 7.21875 227.25 11.3021 227.25 16.7812H216.062V13C216.062 12.25 215.844 11.6667 215.406 11.25C214.99 10.8333 214.417 10.625 213.688 10.625C212.812 10.625 212.167 10.875 211.75 11.375C211.354 11.8542 211.156 12.4792 211.156 13.25C211.156 14.0208 211.365 14.8542 211.781 15.75C212.198 16.6458 213.021 17.6771 214.25 18.8438L220.594 24.9375C221.865 26.1458 223.031 27.4271 224.094 28.7812C225.156 30.1146 226.01 31.6771 226.656 33.4688C227.302 35.2396 227.625 37.4062 227.625 39.9688C227.625 45.1354 226.667 49.1875 224.75 52.125C222.854 55.0417 219.542 56.5 214.812 56.5ZM0.4375 118V63H17.1875L21.8125 96.5312L26.4062 63H43.3125V118H33.25V78.375L26.9375 118H17.0625L10.375 78.375V118H0.4375ZM46.6875 118L52 63H70.6562L75.875 118H65.4688L64.6875 109.125H58.0625L57.375 118H46.6875ZM58.8438 100.344H63.8438L61.4375 72.375H60.9375L58.8438 100.344ZM92.0625 118.5C88.0833 118.5 84.875 117.26 82.4375 114.781C80.0208 112.302 78.8125 108.833 78.8125 104.375V79C78.8125 73.6667 79.8646 69.5833 81.9688 66.75C84.0938 63.9167 87.5417 62.5 92.3125 62.5C94.9167 62.5 97.2292 62.9792 99.25 63.9375C101.292 64.8958 102.896 66.3333 104.062 68.25C105.229 70.1458 105.812 72.5417 105.812 75.4375V84.9375H94.875V76.8125C94.875 75.1667 94.6667 74.0625 94.25 73.5C93.8333 72.9167 93.1875 72.625 92.3125 72.625C91.2917 72.625 90.6042 73 90.25 73.75C89.8958 74.4792 89.7188 75.4583 89.7188 76.6875V104.219C89.7188 105.74 89.9375 106.812 90.375 107.438C90.8333 108.062 91.4792 108.375 92.3125 108.375C93.25 108.375 93.9062 107.99 94.2812 107.219C94.6771 106.448 94.875 105.448 94.875 104.219V94.3125H105.938V104.719C105.938 109.552 104.719 113.062 102.281 115.25C99.8438 117.417 96.4375 118.5 92.0625 118.5ZM109.625 118V63H120.562V82.6562H125.75V63H136.688V118H125.75V93.0625H120.562V118H109.625ZM140.062 118L145.375 63H164.031L169.25 118H158.844L158.062 109.125H151.438L150.75 118H140.062ZM152.219 100.344H157.219L154.812 72.375H154.312L152.219 100.344ZM172.625 118V63H187.75C191.708 63 194.688 64.1042 196.688 66.3125C198.688 68.5 199.688 71.7083 199.688 75.9375V101.688C199.688 106.896 198.771 110.917 196.938 113.75C195.125 116.583 191.938 118 187.375 118H172.625ZM183.688 108.281H185.594C187.615 108.281 188.625 107.302 188.625 105.344V76.9688C188.625 75.1354 188.375 73.9583 187.875 73.4375C187.396 72.8958 186.406 72.625 184.906 72.625H183.688V108.281ZM217.312 118.5C212.917 118.5 209.552 117.177 207.219 114.531C204.906 111.865 203.75 108.021 203.75 103V76.875C203.75 72.1667 204.896 68.5938 207.188 66.1562C209.5 63.7188 212.875 62.5 217.312 62.5C221.75 62.5 225.115 63.7188 227.406 66.1562C229.719 68.5938 230.875 72.1667 230.875 76.875V103C230.875 108.021 229.708 111.865 227.375 114.531C225.062 117.177 221.708 118.5 217.312 118.5ZM217.406 108.375C219.073 108.375 219.906 106.76 219.906 103.531V76.6875C219.906 73.9792 219.094 72.625 217.469 72.625C215.635 72.625 214.719 74.0104 214.719 76.7812V103.594C214.719 105.302 214.927 106.531 215.344 107.281C215.76 108.01 216.448 108.375 217.406 108.375Z" fill="#07F49E"/>
</svg>
