<svg width="462" height="236" viewBox="0 0 462 236" fill="none" xmlns="http://www.w3.org/2000/svg">
<path d="M0.875 111V1H22.75V40.3125H33.125V1H55V111H33.125V61.125H22.75V111H0.875ZM64.75 111V1H108.75V22.25H87.125V43.6875H107.875V64.375H87.125V89.5625H110.188V111H64.75ZM117.5 111V1H151.25C156.875 1 161.125 2.29167 164 4.875C166.875 7.41667 168.792 11 169.75 15.625C170.75 20.2083 171.25 25.6042 171.25 31.8125C171.25 37.8125 170.479 42.6042 168.938 46.1875C167.438 49.7708 164.583 52.25 160.375 53.625C163.833 54.3333 166.25 56.0625 167.625 58.8125C169.042 61.5208 169.75 65.0417 169.75 69.375V111H148.062V67.9375C148.062 64.7292 147.396 62.75 146.062 62C144.771 61.2083 142.667 60.8125 139.75 60.8125V111H117.5ZM139.875 41.75H145.188C148.229 41.75 149.75 38.4375 149.75 31.8125C149.75 27.5208 149.417 24.7083 148.75 23.375C148.083 22.0417 146.833 21.375 145 21.375H139.875V41.75ZM204.125 112C196.167 112 189.75 109.521 184.875 104.562C180.042 99.6042 177.625 92.6667 177.625 83.75V33C177.625 22.3333 179.729 14.1667 183.938 8.5C188.188 2.83333 195.083 0 204.625 0C209.833 0 214.458 0.958333 218.5 2.875C222.583 4.79167 225.792 7.66667 228.125 11.5C230.458 15.2917 231.625 20.0833 231.625 25.875V44.875H209.75V28.625C209.75 25.3333 209.333 23.125 208.5 22C207.667 20.8333 206.375 20.25 204.625 20.25C202.583 20.25 201.208 21 200.5 22.5C199.792 23.9583 199.438 25.9167 199.438 28.375V83.4375C199.438 86.4792 199.875 88.625 200.75 89.875C201.667 91.125 202.958 91.75 204.625 91.75C206.5 91.75 207.812 90.9792 208.562 89.4375C209.354 87.8958 209.75 85.8958 209.75 83.4375V63.625H231.875V84.4375C231.875 94.1042 229.438 101.125 224.562 105.5C219.688 109.833 212.875 112 204.125 112ZM264.688 112C255.521 112 248.771 109.438 244.438 104.312C240.104 99.1458 237.938 91.5625 237.938 81.5625V1H259.312V80.6875C259.312 82.5208 259.417 84.2917 259.625 86C259.833 87.6667 260.312 89.0417 261.062 90.125C261.812 91.2083 263.021 91.75 264.688 91.75C266.396 91.75 267.625 91.2292 268.375 90.1875C269.125 89.1042 269.583 87.7083 269.75 86C269.958 84.2917 270.062 82.5208 270.062 80.6875V1H291.438V81.5625C291.438 91.5625 289.271 99.1458 284.938 104.312C280.604 109.438 273.854 112 264.688 112ZM299.875 111V1H321.875V92.25H344.5V111H299.875ZM350.75 111V1H394.75V22.25H373.125V43.6875H393.875V64.375H373.125V89.5625H396.188V111H350.75ZM429.625 112C419.583 112 412.333 109.5 407.875 104.5C403.458 99.5 401.25 91.5417 401.25 80.625V69.875H423V83.625C423 86.1667 423.375 88.1667 424.125 89.625C424.917 91.0417 426.271 91.75 428.188 91.75C430.188 91.75 431.562 91.1667 432.312 90C433.104 88.8333 433.5 86.9167 433.5 84.25C433.5 80.875 433.167 78.0625 432.5 75.8125C431.833 73.5208 430.667 71.3542 429 69.3125C427.375 67.2292 425.104 64.8125 422.188 62.0625L412.312 52.6875C404.938 45.7292 401.25 37.7708 401.25 28.8125C401.25 19.4375 403.417 12.2917 407.75 7.375C412.125 2.45833 418.438 0 426.688 0C436.771 0 443.917 2.6875 448.125 8.0625C452.375 13.4375 454.5 21.6042 454.5 32.5625H432.125V25C432.125 23.5 431.688 22.3333 430.812 21.5C429.979 20.6667 428.833 20.25 427.375 20.25C425.625 20.25 424.333 20.75 423.5 21.75C422.708 22.7083 422.312 23.9583 422.312 25.5C422.312 27.0417 422.729 28.7083 423.562 30.5C424.396 32.2917 426.042 34.3542 428.5 36.6875L441.188 48.875C443.729 51.2917 446.062 53.8542 448.188 56.5625C450.312 59.2292 452.021 62.3542 453.312 65.9375C454.604 69.4792 455.25 73.8125 455.25 78.9375C455.25 89.2708 453.333 97.375 449.5 103.25C445.708 109.083 439.083 112 429.625 112ZM0.875 235V125H34.375L43.625 192.062L52.8125 125H86.625V235H66.5V155.75L53.875 235H34.125L20.75 155.75V235H0.875ZM93.375 235L104 125H141.312L151.75 235H130.938L129.375 217.25H116.125L114.75 235H93.375ZM117.688 199.688H127.688L122.875 143.75H121.875L117.688 199.688ZM184.125 236C176.167 236 169.75 233.521 164.875 228.562C160.042 223.604 157.625 216.667 157.625 207.75V157C157.625 146.333 159.729 138.167 163.938 132.5C168.188 126.833 175.083 124 184.625 124C189.833 124 194.458 124.958 198.5 126.875C202.583 128.792 205.792 131.667 208.125 135.5C210.458 139.292 211.625 144.083 211.625 149.875V168.875H189.75V152.625C189.75 149.333 189.333 147.125 188.5 146C187.667 144.833 186.375 144.25 184.625 144.25C182.583 144.25 181.208 145 180.5 146.5C179.792 147.958 179.438 149.917 179.438 152.375V207.438C179.438 210.479 179.875 212.625 180.75 213.875C181.667 215.125 182.958 215.75 184.625 215.75C186.5 215.75 187.812 214.979 188.562 213.438C189.354 211.896 189.75 209.896 189.75 207.438V187.625H211.875V208.438C211.875 218.104 209.438 225.125 204.562 229.5C199.688 233.833 192.875 236 184.125 236ZM219.25 235V125H241.125V164.312H251.5V125H273.375V235H251.5V185.125H241.125V235H219.25ZM280.125 235L290.75 125H328.062L338.5 235H317.688L316.125 217.25H302.875L301.5 235H280.125ZM304.438 199.688H314.438L309.625 143.75H308.625L304.438 199.688ZM345.25 235V125H375.5C383.417 125 389.375 127.208 393.375 131.625C397.375 136 399.375 142.417 399.375 150.875V202.375C399.375 212.792 397.542 220.833 393.875 226.5C390.25 232.167 383.875 235 374.75 235H345.25ZM367.375 215.562H371.188C375.229 215.562 377.25 213.604 377.25 209.688V152.938C377.25 149.271 376.75 146.917 375.75 145.875C374.792 144.792 372.812 144.25 369.812 144.25H367.375V215.562ZM434.625 236C425.833 236 419.104 233.354 414.438 228.062C409.812 222.729 407.5 215.042 407.5 205V152.75C407.5 143.333 409.792 136.188 414.375 131.312C419 126.438 425.75 124 434.625 124C443.5 124 450.229 126.438 454.812 131.312C459.438 136.188 461.75 143.333 461.75 152.75V205C461.75 215.042 459.417 222.729 454.75 228.062C450.125 233.354 443.417 236 434.625 236ZM434.812 215.75C438.146 215.75 439.812 212.521 439.812 206.062V152.375C439.812 146.958 438.188 144.25 434.938 144.25C431.271 144.25 429.438 147.021 429.438 152.562V206.188C429.438 209.604 429.854 212.062 430.688 213.562C431.521 215.021 432.896 215.75 434.812 215.75Z" fill="#07F49E"/>
</svg>
