<svg width="130" height="68" viewBox="0 0 130 68" fill="none" xmlns="http://www.w3.org/2000/svg">
<path d="M0.371094 32V1.0625H6.52344V12.1191H9.44141V1.0625H15.5938V32H9.44141V17.9727H6.52344V32H0.371094ZM18.3359 32V1.0625H30.7109V7.03906H24.6289V13.0684H30.4648V18.8867H24.6289V25.9707H31.1152V32H18.3359ZM33.1719 32V1.0625H42.6641C44.2461 1.0625 45.4414 1.42578 46.25 2.15234C47.0586 2.86719 47.5977 3.875 47.8672 5.17578C48.1484 6.46484 48.2891 7.98242 48.2891 9.72852C48.2891 11.416 48.0723 12.7637 47.6387 13.7715C47.2168 14.7793 46.4141 15.4766 45.2305 15.8633C46.2031 16.0625 46.8828 16.5488 47.2695 17.3223C47.668 18.084 47.8672 19.0742 47.8672 20.293V32H41.7676V19.8887C41.7676 18.9863 41.5801 18.4297 41.2051 18.2188C40.8418 17.9961 40.25 17.8848 39.4297 17.8848V32H33.1719ZM39.4648 12.5234H40.959C41.8145 12.5234 42.2422 11.5918 42.2422 9.72852C42.2422 8.52148 42.1484 7.73047 41.9609 7.35547C41.7734 6.98047 41.4219 6.79297 40.9062 6.79297H39.4648V12.5234ZM57.5352 32.2812C55.2969 32.2812 53.4922 31.584 52.1211 30.1895C50.7617 28.7949 50.082 26.8438 50.082 24.3359V10.0625C50.082 7.0625 50.6738 4.76563 51.8574 3.17188C53.0527 1.57812 54.9922 0.78125 57.6758 0.78125C59.1406 0.78125 60.4414 1.05078 61.5781 1.58984C62.7266 2.12891 63.6289 2.9375 64.2852 4.01562C64.9414 5.08203 65.2695 6.42969 65.2695 8.05859V13.4023H59.1172V8.83203C59.1172 7.90625 59 7.28516 58.7656 6.96875C58.5312 6.64062 58.168 6.47656 57.6758 6.47656C57.1016 6.47656 56.7148 6.6875 56.5156 7.10938C56.3164 7.51953 56.2168 8.07031 56.2168 8.76172V24.248C56.2168 25.1035 56.3398 25.707 56.5859 26.0586C56.8438 26.4102 57.207 26.5859 57.6758 26.5859C58.2031 26.5859 58.5723 26.3691 58.7832 25.9355C59.0059 25.502 59.1172 24.9395 59.1172 24.248V18.6758H65.3398V24.5293C65.3398 27.248 64.6543 29.2227 63.2832 30.4531C61.9121 31.6719 59.9961 32.2812 57.5352 32.2812ZM74.5684 32.2812C71.9902 32.2812 70.0918 31.5605 68.873 30.1191C67.6543 28.666 67.0449 26.5332 67.0449 23.7207V1.0625H73.0566V23.4746C73.0566 23.9902 73.0859 24.4883 73.1445 24.9688C73.2031 25.4375 73.3379 25.8242 73.5488 26.1289C73.7598 26.4336 74.0996 26.5859 74.5684 26.5859C75.0488 26.5859 75.3945 26.4395 75.6055 26.1465C75.8164 25.8418 75.9453 25.4492 75.9922 24.9688C76.0508 24.4883 76.0801 23.9902 76.0801 23.4746V1.0625H82.0918V23.7207C82.0918 26.5332 81.4824 28.666 80.2637 30.1191C79.0449 31.5605 77.1465 32.2812 74.5684 32.2812ZM84.4648 32V1.0625H90.6523V26.7266H97.0156V32H84.4648ZM98.7734 32V1.0625H111.148V7.03906H105.066V13.0684H110.902V18.8867H105.066V25.9707H111.553V32H98.7734ZM120.957 32.2812C118.133 32.2812 116.094 31.5781 114.84 30.1719C113.598 28.7656 112.977 26.5273 112.977 23.457V20.4336H119.094V24.3008C119.094 25.0156 119.199 25.5781 119.41 25.9883C119.633 26.3867 120.014 26.5859 120.553 26.5859C121.115 26.5859 121.502 26.4219 121.713 26.0938C121.936 25.7656 122.047 25.2266 122.047 24.4766C122.047 23.5273 121.953 22.7363 121.766 22.1035C121.578 21.459 121.25 20.8496 120.781 20.2754C120.324 19.6895 119.686 19.0098 118.865 18.2363L116.088 15.5996C114.014 13.6426 112.977 11.4043 112.977 8.88477C112.977 6.24805 113.586 4.23828 114.805 2.85547C116.035 1.47266 117.811 0.78125 120.131 0.78125C122.967 0.78125 124.977 1.53711 126.16 3.04883C127.355 4.56055 127.953 6.85742 127.953 9.93945H121.66V7.8125C121.66 7.39062 121.537 7.0625 121.291 6.82812C121.057 6.59375 120.734 6.47656 120.324 6.47656C119.832 6.47656 119.469 6.61719 119.234 6.89844C119.012 7.16797 118.9 7.51953 118.9 7.95312C118.9 8.38672 119.018 8.85547 119.252 9.35938C119.486 9.86328 119.949 10.4434 120.641 11.0996L124.209 14.5273C124.924 15.207 125.58 15.9277 126.178 16.6895C126.775 17.4395 127.256 18.3184 127.619 19.3262C127.982 20.3223 128.164 21.541 128.164 22.9824C128.164 25.8887 127.625 28.168 126.547 29.8203C125.48 31.4609 123.617 32.2812 120.957 32.2812ZM0.371094 67V36.0625H9.79297L12.3945 54.9238L14.9785 36.0625H24.4883V67H18.8281V44.7109L15.2773 67H9.72266L5.96094 44.7109V67H0.371094ZM26.3867 67L29.375 36.0625H39.8691L42.8047 67H36.9512L36.5117 62.0078H32.7852L32.3984 67H26.3867ZM33.2246 57.0684H36.0371L34.6836 41.3359H34.4023L33.2246 57.0684ZM51.9102 67.2812C49.6719 67.2812 47.8672 66.584 46.4961 65.1895C45.1367 63.7949 44.457 61.8438 44.457 59.3359V45.0625C44.457 42.0625 45.0488 39.7656 46.2324 38.1719C47.4277 36.5781 49.3672 35.7812 52.0508 35.7812C53.5156 35.7812 54.8164 36.0508 55.9531 36.5898C57.1016 37.1289 58.0039 37.9375 58.6602 39.0156C59.3164 40.082 59.6445 41.4297 59.6445 43.0586V48.4023H53.4922V43.832C53.4922 42.9062 53.375 42.2852 53.1406 41.9688C52.9062 41.6406 52.543 41.4766 52.0508 41.4766C51.4766 41.4766 51.0898 41.6875 50.8906 42.1094C50.6914 42.5195 50.5918 43.0703 50.5918 43.7617V59.248C50.5918 60.1035 50.7148 60.707 50.9609 61.0586C51.2188 61.4102 51.582 61.5859 52.0508 61.5859C52.5781 61.5859 52.9473 61.3691 53.1582 60.9355C53.3809 60.502 53.4922 59.9395 53.4922 59.248V53.6758H59.7148V59.5293C59.7148 62.248 59.0293 64.2227 57.6582 65.4531C56.2871 66.6719 54.3711 67.2812 51.9102 67.2812ZM61.7891 67V36.0625H67.9414V47.1191H70.8594V36.0625H77.0117V67H70.8594V52.9727H67.9414V67H61.7891ZM78.9102 67L81.8984 36.0625H92.3926L95.3281 67H89.4746L89.0352 62.0078H85.3086L84.9219 67H78.9102ZM85.748 57.0684H88.5605L87.207 41.3359H86.9258L85.748 57.0684ZM97.2266 67V36.0625H105.734C107.961 36.0625 109.637 36.6836 110.762 37.9258C111.887 39.1562 112.449 40.9609 112.449 43.3398V57.8242C112.449 60.7539 111.934 63.0156 110.902 64.6094C109.883 66.2031 108.09 67 105.523 67H97.2266ZM103.449 61.5332H104.521C105.658 61.5332 106.227 60.9824 106.227 59.8809V43.9199C106.227 42.8887 106.086 42.2266 105.805 41.9336C105.535 41.6289 104.979 41.4766 104.135 41.4766H103.449V61.5332ZM122.363 67.2812C119.891 67.2812 117.998 66.5371 116.686 65.0488C115.385 63.5488 114.734 61.3867 114.734 58.5625V43.8672C114.734 41.2188 115.379 39.209 116.668 37.8379C117.969 36.4668 119.867 35.7812 122.363 35.7812C124.859 35.7812 126.752 36.4668 128.041 37.8379C129.342 39.209 129.992 41.2188 129.992 43.8672V58.5625C129.992 61.3867 129.336 63.5488 128.023 65.0488C126.723 66.5371 124.836 67.2812 122.363 67.2812ZM122.416 61.5859C123.354 61.5859 123.822 60.6777 123.822 58.8613V43.7617C123.822 42.2383 123.365 41.4766 122.451 41.4766C121.42 41.4766 120.904 42.2559 120.904 43.8145V58.8965C120.904 59.8574 121.021 60.5488 121.256 60.9707C121.49 61.3809 121.877 61.5859 122.416 61.5859Z" fill="#07F49E"/>
</svg>
